  0
SECTION
  2
HEADER
  9
$ACADVER
  1
AC1012
  9
$DWGCODEPAGE
  3
ansi_936
  9
$INSBASE
 10
0.0
 20
0.0
 30
0.0
  9
$EXTMIN
 10
0.0
 20
0.0
 30
0.0
  9
$EXTMAX
 10
297.0
 20
210.0
 30
0.0
  9
$LIMMIN
 10
0.0
 20
0.0
  9
$LIMMAX
 10
297.0
 20
210.0
  9
$ORTHOMODE
 70
     0
  9
$REGENMODE
 70
     1
  9
$FILLMODE
 70
     1
  9
$QTEXTMODE
 70
     0
  9
$MIRRTEXT
 70
     1
  9
$DRAGMODE
 70
     2
  9
$LTSCALE
 40
1.0
  9
$OSMODE
 70
    37
  9
$ATTMODE
 70
     1
  9
$TEXTSIZE
 40
3.5
  9
$TRACEWID
 40
1.0
  9
$TEXTSTYLE
  7
STANDARD
  9
$CLAYER
  8
0
  9
$CELTYPE
  6
BYLAYER
  9
$CECOLOR
 62
   256
  9
$CELTSCALE
 40
1.0
  9
$DELOBJ
 70
     1
  9
$DISPSILH
 70
     0
  9
$DIMSCALE
 40
1.0
  9
$DIMASZ
 40
1.8
  9
$DIMEXO
 40
1.0
  9
$DIMDLI
 40
3.75
  9
$DIMRND
 40
0.0
  9
$DIMDLE
 40
0.0
  9
$DIMEXE
 40
1.0
  9
$DIMTP
 40
0.0
  9
$DIMTM
 40
0.0
  9
$DIMTXT
 40
3.5
  9
$DIMCEN
 40
2.5
  9
$DIMTSZ
 40
0.0
  9
$DIMTOL
 70
     0
  9
$DIMLIM
 70
     0
  9
$DIMTIH
 70
     1
  9
$DIMTOH
 70
     1
  9
$DIMSE1
 70
     0
  9
$DIMSE2
 70
     0
  9
$DIMTAD
 70
     1
  9
$DIMZIN
 70
     0
  9
$DIMBLK
  1

  9
$DIMASO
 70
     1
  9
$DIMSHO
 70
     1
  9
$DIMPOST
  1

  9
$DIMAPOST
  1

  9
$DIMALT
 70
     0
  9
$DIMALTD
 70
     3
  9
$DIMALTF
 40
0.0393700787
  9
$DIMLFAC
 40
5.0
  9
$DIMTOFL
 70
     1
  9
$DIMTVP
 40
0.0
  9
$DIMTIX
 70
     0
  9
$DIMSOXD
 70
     0
  9
$DIMSAH
 70
     0
  9
$DIMBLK1
  1

  9
$DIMBLK2
  1

  9
$DIMSTYLE
  2
ISO-25
  9
$DIMCLRD
 70
     0
  9
$DIMCLRE
 70
     0
  9
$DIMCLRT
 70
     0
  9
$DIMTFAC
 40
1.0
  9
$DIMGAP
 40
1.524
  9
$DIMJUST
 70
     0
  9
$DIMSD1
 70
     0
  9
$DIMSD2
 70
     0
  9
$DIMTOLJ
 70
     0
  9
$DIMTZIN
 70
     0
  9
$DIMALTZ
 70
     0
  9
$DIMALTTZ
 70
     0
  9
$DIMFIT
 70
     3
  9
$DIMUPT
 70
     0
  9
$DIMUNIT
 70
     2
  9
$DIMDEC
 70
     2
  9
$DIMTDEC
 70
     2
  9
$DIMALTU
 70
     2
  9
$DIMALTTD
 70
     3
  9
$DIMTXSTY
  7
STANDARD
  9
$DIMAUNIT
 70
     0
  9
$LUNITS
 70
     2
  9
$LUPREC
 70
     2
  9
$SKETCHINC
 40
1.0
  9
$FILLETRAD
 40
10.0
  9
$AUNITS
 70
     0
  9
$AUPREC
 70
     2
  9
$MENU
  1
.
  9
$ELEVATION
 40
0.0
  9
$PELEVATION
 40
0.0
  9
$THICKNESS
 40
0.0
  9
$LIMCHECK
 70
     0
  9
$CHAMFERA
 40
0.0
  9
$CHAMFERB
 40
0.0
  9
$CHAMFERC
 40
0.0
  9
$CHAMFERD
 40
0.0
  9
$SKPOLY
 70
     0
  9
$TDCREATE
 40
2458948.653879213
  9
$TDUPDATE
 40
2458948.653880845
  9
$TDINDWG
 40
0.0000000116
  9
$TDUSRTIMER
 40
0.0000000116
  9
$USRTIMER
 70
     1
  9
$ANGBASE
 50
0.0
  9
$ANGDIR
 70
     0
  9
$PDMODE
 70
     0
  9
$PDSIZE
 40
-1.0
  9
$PLINEWID
 40
0.0
  9
$COORDS
 70
     1
  9
$SPLFRAME
 70
     0
  9
$SPLINETYPE
 70
     6
  9
$SPLINESEGS
 70
     8
  9
$ATTDIA
 70
     0
  9
$ATTREQ
 70
     1
  9
$HANDLING
 70
     1
  9
$HANDSEED
  5
194
  9
$SURFTAB1
 70
     6
  9
$SURFTAB2
 70
     6
  9
$SURFTYPE
 70
     6
  9
$SURFU
 70
     6
  9
$SURFV
 70
     6
  9
$UCSNAME
  2

  9
$UCSORG
 10
0.0
 20
0.0
 30
0.0
  9
$UCSXDIR
 10
1.0
 20
0.0
 30
0.0
  9
$UCSYDIR
 10
0.0
 20
1.0
 30
0.0
  9
$PUCSNAME
  2

  9
$PUCSORG
 10
0.0
 20
0.0
 30
0.0
  9
$PUCSXDIR
 10
1.0
 20
0.0
 30
0.0
  9
$PUCSYDIR
 10
0.0
 20
1.0
 30
0.0
  9
$USERI1
 70
     0
  9
$USERI2
 70
     0
  9
$USERI3
 70
     0
  9
$USERI4
 70
     0
  9
$USERI5
 70
     0
  9
$USERR1
 40
0.0
  9
$USERR2
 40
0.0
  9
$USERR3
 40
0.0
  9
$USERR4
 40
0.0
  9
$USERR5
 40
0.0
  9
$WORLDVIEW
 70
     1
  9
$SHADEDGE
 70
     3
  9
$SHADEDIF
 70
    70
  9
$TILEMODE
 70
     1
  9
$MAXACTVP
 70
    64
  9
$PINSBASE
 10
0.0
 20
0.0
 30
0.0
  9
$PLIMCHECK
 70
     0
  9
$PEXTMIN
 10
1.0000000000E+20
 20
1.0000000000E+20
 30
1.0000000000E+20
  9
$PEXTMAX
 10
-1.0000000000E+20
 20
-1.0000000000E+20
 30
-1.0000000000E+20
  9
$PLIMMIN
 10
0.0
 20
0.0
  9
$PLIMMAX
 10
420.0
 20
297.0
  9
$UNITMODE
 70
     0
  9
$VISRETAIN
 70
     1
  9
$PLINEGEN
 70
     0
  9
$PSLTSCALE
 70
     1
  9
$TREEDEPTH
 70
  3020
  9
$PICKSTYLE
 70
     1
  9
$CMLSTYLE
  2
STANDARD
  9
$CMLJUST
 70
     0
  9
$CMLSCALE
 40
20.0
  9
$SAVEIMAGES
 70
     1
  0
ENDSEC
  0
SECTION
  2
CLASSES
  0
CLASS
  1
ACDBDICTIONARYWDFLT
  2
AcDbDictionaryWithDefault
  3
ObjectDBX Classes
 90
    32768
280
     0
281
     0
  0
CLASS
  1
VISUALSTYLE
  2
AcDbVisualStyle
  3
ObjectDBX Classes
 90
     4095
280
     0
281
     0
  0
CLASS
  1
MATERIAL
  2
AcDbMaterial
  3
ObjectDBX Classes
 90
     1153
280
     0
281
     0
  0
CLASS
  1
SCALE
  2
AcDbScale
  3
ObjectDBX Classes
 90
     1153
280
     0
281
     0
  0
CLASS
  1
TABLESTYLE
  2
AcDbTableStyle
  3
ObjectDBX Classes
 90
     4095
280
     0
281
     0
  0
CLASS
  1
MLEADERSTYLE
  2
AcDbMLeaderStyle
  3
ACDB_MLEADERSTYLE_CLASS
 90
     4095
280
     0
281
     0
  0
CLASS
  1
SUN
  2
AcDbSun
  3
SCENEOE
 90
     1153
280
     0
281
     0
  0
CLASS
  1
XRECORD
  2
AcDbXrecord
  3
ObjectDBX Classes
 90
    32768
280
     0
281
     0
  0
ENDSEC
  0
SECTION
  2
TABLES
  0
TABLE
  2
VPORT
  5
8
330
0
100
AcDbSymbolTable
 70
     1
  0
VPORT
  5
29
330
8
100
AcDbSymbolTableRecord
100
AcDbViewportTableRecord
  2
*ACTIVE
 70
     0
 10
0.0
 20
0.0
 11
1.0
 21
1.0
 12
148.5
 22
105.0
 13
0.0
 23
0.0
 14
10.0
 24
10.0
 15
10.0
 25
10.0
 16
0.0
 26
0.0
 36
1.0
 17
0.0
 27
0.0
 37
0.0
 40
210.0
 41
1.4142857143
 42
50.0
 43
0.0
 44
0.0
 50
0.0
 51
0.0
 71
     0
 72
  2000
 73
     1
 74
     3
 75
     0
 76
     0
 77
     0
 78
     0
  0
ENDTAB
  0
TABLE
  2
LTYPE
  5
5
330
0
100
AcDbSymbolTable
 70
     8
  0
LTYPE
  5
14
330
5
100
AcDbSymbolTableRecord
100
AcDbLinetypeTableRecord
  2
BYBLOCK
 70
     0
  3

 72
    65
 73
     0
 40
0.0
  0
LTYPE
  5
15
330
5
100
AcDbSymbolTableRecord
100
AcDbLinetypeTableRecord
  2
BYLAYER
 70
     0
  3

 72
    65
 73
     0
 40
0.0
  0
LTYPE
  5
16
330
5
100
AcDbSymbolTableRecord
100
AcDbLinetypeTableRecord
  2
CONTINUOUS
 70
     0
  3
Solid line
 72
    65
 73
     0
 40
0.0
  0
LTYPE
  5
6E
330
5
100
AcDbSymbolTableRecord
100
AcDbLinetypeTableRecord
  2
SLD-实线
 70
     0
  3
SolidWorks Line Style
 72
    65
 73
     0
 40
0.0
  0
LTYPE
  5
6F
330
5
100
AcDbSymbolTableRecord
100
AcDbLinetypeTableRecord
  2
SLD-虚线
 70
     0
  3
SolidWorks Line Style
 72
    65
 73
     2
 40
1.905
 49
1.27
 74
     0
 49
-0.635
 74
     0
  0
LTYPE
  5
70
330
5
100
AcDbSymbolTableRecord
100
AcDbLinetypeTableRecord
  2
SLD-双点画线
 70
     0
  3
SolidWorks Line Style
 72
    65
 73
     6
 40
12.7
 49
6.35
 74
     0
 49
-1.27
 74
     0
 49
1.27
 74
     0
 49
-1.27
 74
     0
 49
1.27
 74
     0
 49
-1.27
 74
     0
  0
LTYPE
  5
71
330
5
100
AcDbSymbolTableRecord
100
AcDbLinetypeTableRecord
  2
SLD-点画线
 70
     0
  3
SolidWorks Line Style
 72
    65
 73
     4
 40
10.16
 49
6.35
 74
     0
 49
-1.27
 74
     0
 49
1.27
 74
     0
 49
-1.27
 74
     0
  0
LTYPE
  5
72
330
5
100
AcDbSymbolTableRecord
100
AcDbLinetypeTableRecord
  2
SLD-中心线
 70
     0
  3
SolidWorks Line Style
 72
    65
 73
     4
 40
34.29
 49
30.48
 74
     0
 49
-1.27
 74
     0
 49
1.27
 74
     0
 49
-1.27
 74
     0
  0
LTYPE
  5
73
330
5
100
AcDbSymbolTableRecord
100
AcDbLinetypeTableRecord
  2
SLD-裁剪线
 70
     0
  3
SolidWorks Line Style
 72
    65
 73
     2
 40
0.635
 49
0.0
 74
     0
 49
-0.635
 74
     0
  0
LTYPE
  5
74
330
5
100
AcDbSymbolTableRecord
100
AcDbLinetypeTableRecord
  2
SLD-细-粗_点画线
 70
     0
  3
SolidWorks Line Style
 72
    65
 73
     5
 40
15.24
 49
6.35
 74
     0
 49
-1.27
 74
     0
 49
1.27
 74
     0
 49
-1.27
 74
     0
 49
5.08
 74
     0
  0
ENDTAB
  0
TABLE
  2
LAYER
  5
2
330
0
100
AcDbSymbolTable
 70
     6
  0
LAYER
  5
10
330
2
100
AcDbSymbolTableRecord
100
AcDbLayerTableRecord
  2
0
 70
     0
 62
     7
  6
CONTINUOUS
  0
LAYER
  5
75
330
2
100
AcDbSymbolTableRecord
100
AcDbLayerTableRecord
  2
FORMAT
 70
     0
 62
     8
  6
SLD-实线
  0
LAYER
  5
76
330
2
100
AcDbSymbolTableRecord
100
AcDbLayerTableRecord
  2
尺寸线
 70
     0
 62
     3
  6
SLD-实线
  0
LAYER
  5
77
330
2
100
AcDbSymbolTableRecord
100
AcDbLayerTableRecord
  2
中心线
 70
     0
 62
     1
  6
SLD-点画线
  0
LAYER
  5
78
330
2
100
AcDbSymbolTableRecord
100
AcDbLayerTableRecord
  2
双点画线
 70
     0
 62
     6
  6
SLD-双点画线
  0
LAYER
  5
79
330
2
100
AcDbSymbolTableRecord
100
AcDbLayerTableRecord
  2
文字层
 70
     0
 62
    52
  6
SLD-实线
  0
ENDTAB
  0
TABLE
  2
STYLE
  5
3
330
0
100
AcDbSymbolTable
 70
     7
  0
STYLE
  5
11
330
3
100
AcDbSymbolTableRecord
100
AcDbTextStyleTableRecord
  2
STANDARD
 70
     0
 40
0.0
 41
1.0
 50
0.0
 71
     0
 42
3.5
  3
txt
  4

  0
STYLE
  5
C6
330
3
100
AcDbSymbolTableRecord
100
AcDbTextStyleTableRecord
  2
SLDTEXTSTYLE0
 70
     0
 40
0.0
 41
0.7
 50
0.0
 71
     0
 42
3.5
  3
TXT
  4
bigfont
  0
STYLE
  5
C8
330
3
100
AcDbSymbolTableRecord
100
AcDbTextStyleTableRecord
  2
SLDTEXTSTYLE1
 70
     0
 40
0.0
 41
0.7
 50
0.0
 71
     0
 42
3.5
  3
TXT
  4

  0
STYLE
  5
CE
330
3
100
AcDbSymbolTableRecord
100
AcDbTextStyleTableRecord
  2
SLDTEXTSTYLE2
 70
     0
 40
0.0
 41
0.75
 50
0.0
 71
     0
 42
3.5
  3
TXT
  4
bigfont
  0
STYLE
  5
D5
330
3
100
AcDbSymbolTableRecord
100
AcDbTextStyleTableRecord
  2
SLDTEXTSTYLE3
 70
     0
 40
0.0
 41
0.75
 50
0.0
 71
     0
 42
3.5
  3
TXT
  4

  0
STYLE
  5
F0
330
3
100
AcDbSymbolTableRecord
100
AcDbTextStyleTableRecord
  2
SLDTEXTSTYLE4
 70
     0
 40
0.0
 41
0.5857142857
 50
0.0
 71
     0
 42
3.5
  3
TXT
  4
bigfont
  0
STYLE
  5
14B
330
3
100
AcDbSymbolTableRecord
100
AcDbTextStyleTableRecord
  2
SLDTEXTSTYLE5
 70
     0
 40
0.0
 41
0.6333333333
 50
0.0
 71
     0
 42
3.5
  3
TXT
  4

  0
ENDTAB
  0
TABLE
  2
VIEW
  5
6
330
0
100
AcDbSymbolTable
 70
     0
  0
ENDTAB
  0
TABLE
  2
UCS
  5
7
330
0
100
AcDbSymbolTable
 70
     0
  0
ENDTAB
  0
TABLE
  2
APPID
  5
9
330
0
100
AcDbSymbolTable
 70
     1
  0
APPID
  5
12
330
9
100
AcDbSymbolTableRecord
100
AcDbRegAppTableRecord
  2
ACAD
 70
     0
  0
ENDTAB
  0
TABLE
  2
DIMSTYLE
  5
A
330
0
100
AcDbSymbolTable
 70
     5
  0
DIMSTYLE
105
27
330
A
100
AcDbSymbolTableRecord
100
AcDbDimStyleTableRecord
  2
ISO-25
 70
     0
  3

  4

  5

  6

  7

 40
1.0
 41
2.5
 42
0.625
 43
3.75
 44
1.25
 45
0.0
 46
0.0
 47
0.0
 48
0.0
140
2.5
141
2.5
142
0.0
143
0.0393700787
144
1.0
145
0.0
146
1.0
147
0.625
 71
     0
 72
     0
 73
     0
 74
     0
 75
     0
 76
     0
 77
     1
 78
     8
170
     0
171
     3
172
     1
173
     0
174
     0
175
     0
176
     0
177
     0
178
     0
270
     2
271
     2
272
     2
273
     2
274
     3
340
11
275
     0
280
     0
281
     0
282
     0
283
     0
284
     8
285
     0
286
     0
287
     3
288
     0
  0
DIMSTYLE
105
10D
102
{ACAD_REACTORS
330
10C
330
117
330
121
330
12B
102
}
330
A
100
AcDbSymbolTableRecord
100
AcDbDimStyleTableRecord
  2
SLDDIMSTYLE0
 70
     0
  3

  4

  5

  6

  7

 40
1.0
 41
1.8
 42
0.0625
 43
0.38
 44
0.0
 45
0.000000001
 46
0.0
 47
0.0
 48
0.0
140
3.5
141
0.09
142
0.0
143
25.4
144
5.0
145
0.0
146
1.0
147
0.875
 71
     0
 72
     0
 73
     0
 74
     0
 75
     0
 76
     0
 77
     1
 78
    12
170
     0
171
     2
172
     0
173
     1
174
     0
175
     0
176
     0
177
     0
178
     0
270
     2
271
     2
272
     2
273
     2
274
     2
340
C8
275
     0
280
     0
281
     0
282
     0
283
     1
284
    12
285
     0
286
     0
287
     3
288
     0
  0
DIMSTYLE
105
136
102
{ACAD_REACTORS
330
135
102
}
330
A
100
AcDbSymbolTableRecord
100
AcDbDimStyleTableRecord
  2
SLDDIMSTYLE1
 70
     0
  3

  4

  5

  6

  7

 40
1.0
 41
1.8
 42
0.0625
 43
0.38
 44
0.0
 45
0.000000001
 46
0.0
 47
0.0
 48
0.0
140
3.5
141
0.0
142
0.0
143
25.4
144
5.0
145
0.0
146
1.0
147
0.875
 71
     0
 72
     0
 73
     1
 74
     1
 75
     0
 76
     0
 77
     0
 78
    12
170
     0
171
     2
172
     0
173
     1
174
     0
175
     0
176
     0
177
     0
178
     0
270
     2
271
     2
272
     2
273
     2
274
     2
340
C8
275
     0
280
     0
281
     0
282
     0
283
     1
284
    12
285
     0
286
     0
287
     3
288
     0
  0
DIMSTYLE
105
140
102
{ACAD_REACTORS
330
13F
102
}
330
A
100
AcDbSymbolTableRecord
100
AcDbDimStyleTableRecord
  2
SLDDIMSTYLE2
 70
     0
  3

  4

  5

  6
NONE
  7

 40
1.0
 41
1.8
 42
0.0625
 43
0.38
 44
0.0
 45
0.000000001
 46
0.0
 47
0.0
 48
0.0
140
3.5
141
0.0
142
0.0
143
25.4
144
5.0
145
0.0
146
1.0
147
0.875
 71
     0
 72
     0
 73
     1
 74
     1
 75
     0
 76
     0
 77
     0
 78
     4
170
     0
171
     2
172
     1
173
     1
174
     0
175
     0
176
     0
177
     0
178
     0
270
     2
271
     2
272
     2
273
     2
274
     2
340
C8
275
     0
280
     0
281
     0
282
     0
283
     1
284
    12
285
     0
286
     0
287
     3
288
     0
  0
DIMSTYLE
105
188
102
{ACAD_REACTORS
330
187
102
}
330
A
100
AcDbSymbolTableRecord
100
AcDbDimStyleTableRecord
  2
SLDDIMSTYLE3
 70
     0
  3

  4

  5

  6

  7

 40
1.0
 41
1.8
 42
0.0625
 43
0.38
 44
0.0
 45
0.000000001
 46
0.0
 47
0.0
 48
0.0
140
3.5
141
0.09
142
0.0
143
25.4
144
5.0
145
0.0
146
1.0
147
0.875
 71
     0
 72
     0
 73
     0
 74
     0
 75
     0
 76
     0
 77
     1
 78
     4
170
     0
171
     2
172
     1
173
     1
174
     0
175
     0
176
     0
177
     0
178
     0
270
     2
271
     2
272
     2
273
     2
274
     2
340
C8
275
     0
280
     0
281
     0
282
     0
283
     1
284
    12
285
     0
286
     0
288
     0
  0
ENDTAB
  0
TABLE
  2
BLOCK_RECORD
  5
1
330
0
100
AcDbSymbolTable
 70
    19
  0
BLOCK_RECORD
  5
1F
330
1
100
AcDbSymbolTableRecord
100
AcDbBlockTableRecord
  2
*MODEL_SPACE
  0
BLOCK_RECORD
  5
1B
330
1
100
AcDbSymbolTableRecord
100
AcDbBlockTableRecord
  2
*PAPER_SPACE
  0
BLOCK_RECORD
  5
23
330
1
100
AcDbSymbolTableRecord
100
AcDbBlockTableRecord
  2
*PAPER_SPACE0
  0
BLOCK_RECORD
  5
7A
330
1
100
AcDbSymbolTableRecord
100
AcDbBlockTableRecord
  2
工程图7
  0
BLOCK_RECORD
  5
7E
330
1
100
AcDbSymbolTableRecord
100
AcDbBlockTableRecord
  2
块1
  0
BLOCK_RECORD
  5
82
330
1
100
AcDbSymbolTableRecord
100
AcDbBlockTableRecord
  2
工程图55
  0
BLOCK_RECORD
  5
98
330
1
100
AcDbSymbolTableRecord
100
AcDbBlockTableRecord
  2
块8
  0
BLOCK_RECORD
  5
C0
330
1
100
AcDbSymbolTableRecord
100
AcDbBlockTableRecord
  2
SW_NOTE_0
  0
BLOCK_RECORD
  5
CB
330
1
100
AcDbSymbolTableRecord
100
AcDbBlockTableRecord
  2
SW_NOTE_1
  0
BLOCK_RECORD
  5
10E
330
1
100
AcDbSymbolTableRecord
100
AcDbBlockTableRecord
  2
_D
  0
BLOCK_RECORD
  5
118
330
1
100
AcDbSymbolTableRecord
100
AcDbBlockTableRecord
  2
_D_1
  0
BLOCK_RECORD
  5
122
330
1
100
AcDbSymbolTableRecord
100
AcDbBlockTableRecord
  2
_D_2
  0
BLOCK_RECORD
  5
12C
330
1
100
AcDbSymbolTableRecord
100
AcDbBlockTableRecord
  2
_D_3
  0
BLOCK_RECORD
  5
137
330
1
100
AcDbSymbolTableRecord
100
AcDbBlockTableRecord
  2
_D_4
  0
BLOCK_RECORD
  5
141
330
1
100
AcDbSymbolTableRecord
100
AcDbBlockTableRecord
  2
_NONE
  0
BLOCK_RECORD
  5
144
330
1
100
AcDbSymbolTableRecord
100
AcDbBlockTableRecord
  2
_D_5
  0
BLOCK_RECORD
  5
14F
330
1
100
AcDbSymbolTableRecord
100
AcDbBlockTableRecord
  2
SW_CENTERMARKSYMBOL_0
  0
BLOCK_RECORD
  5
15B
330
1
100
AcDbSymbolTableRecord
100
AcDbBlockTableRecord
  2
SW_CENTERMARKSYMBOL_1
  0
BLOCK_RECORD
  5
167
330
1
100
AcDbSymbolTableRecord
100
AcDbBlockTableRecord
  2
SW_CENTERMARKSYMBOL_2
  0
BLOCK_RECORD
  5
173
330
1
100
AcDbSymbolTableRecord
100
AcDbBlockTableRecord
  2
SW_CENTERMARKSYMBOL_3
  0
BLOCK_RECORD
  5
189
330
1
100
AcDbSymbolTableRecord
100
AcDbBlockTableRecord
  2
_D_6
  0
ENDTAB
  0
ENDSEC
  0
SECTION
  2
BLOCKS
  0
BLOCK
  5
20
330
1F
100
AcDbEntity
  8
0
100
AcDbBlockBegin
  2
*MODEL_SPACE
 70
     0
 10
0.0
 20
0.0
 30
0.0
  3
*MODEL_SPACE
  1

  0
ENDBLK
  5
21
330
1F
100
AcDbEntity
  8
0
100
AcDbBlockEnd
  0
BLOCK
  5
1C
330
1B
100
AcDbEntity
 67
     1
  8
0
100
AcDbBlockBegin
  2
*PAPER_SPACE
 70
     0
 10
0.0
 20
0.0
 30
0.0
  3
*PAPER_SPACE
  1

  0
ENDBLK
  5
1D
330
1B
100
AcDbEntity
 67
     1
  8
0
100
AcDbBlockEnd
  0
BLOCK
  5
24
330
23
100
AcDbEntity
  8
0
100
AcDbBlockBegin
  2
*PAPER_SPACE0
 70
     0
 10
0.0
 20
0.0
 30
0.0
  3
*PAPER_SPACE0
  1

  0
ENDBLK
  5
25
330
23
100
AcDbEntity
  8
0
100
AcDbBlockEnd
  0
BLOCK
  5
7B
330
7A
100
AcDbEntity
  8
0
100
AcDbBlockBegin
  2
工程图7
 70
     0
 10
0.0
 20
0.0
 30
0.0
  3
工程图7
  1

  0
LINE
  5
7D
330
7A
100
AcDbEntity
  8
0
  6
SLD-实线
 62
   179
100
AcDbLine
 10
0.0
 20
28.0
 30
0.0
 11
0.0
 21
0.0
 31
0.0
  0
ENDBLK
  5
7C
330
7A
100
AcDbEntity
  8
0
100
AcDbBlockEnd
  0
BLOCK
  5
7F
330
7E
100
AcDbEntity
  8
0
100
AcDbBlockBegin
  2
块1
 70
     0
 10
0.0
 20
0.0
 30
0.0
  3
块1
  1

  0
LINE
  5
81
330
7E
100
AcDbEntity
  8
0
  6
SLD-实线
 62
   179
100
AcDbLine
 10
0.0
 20
0.0
 30
0.0
 11
90.0
 21
0.0
 31
0.0
  0
ENDBLK
  5
80
330
7E
100
AcDbEntity
  8
0
100
AcDbBlockEnd
  0
BLOCK
  5
83
330
82
100
AcDbEntity
  8
0
100
AcDbBlockBegin
  2
工程图55
 70
     0
 10
0.0
 20
0.0
 30
0.0
  3
工程图55
  1

  0
LINE
  5
85
330
82
100
AcDbEntity
  8
0
  6
SLD-实线
 62
   179
100
AcDbLine
 10
287.0
 20
200.0
 30
0.0
 11
10.0
 21
200.0
 31
0.0
  0
LINE
  5
86
330
82
100
AcDbEntity
  8
0
  6
SLD-实线
 62
   179
100
AcDbLine
 10
292.0
 20
205.0
 30
0.0
 11
5.0
 21
205.0
 31
0.0
  0
LINE
  5
87
330
82
100
AcDbEntity
  8
0
  6
SLD-实线
 62
   179
100
AcDbLine
 10
10.0
 20
200.0
 30
0.0
 11
10.0
 21
10.0
 31
0.0
  0
LINE
  5
88
330
82
100
AcDbEntity
  8
0
  6
SLD-实线
 62
   179
100
AcDbLine
 10
5.0
 20
205.0
 30
0.0
 11
5.0
 21
5.0
 31
0.0
  0
LINE
  5
89
330
82
100
AcDbEntity
  8
0
  6
SLD-实线
 62
   179
100
AcDbLine
 10
10.0
 20
55.0
 30
0.0
 11
5.0
 21
55.0
 31
0.0
  0
LINE
  5
8A
330
82
100
AcDbEntity
  8
0
  6
SLD-实线
 62
   179
100
AcDbLine
 10
5.0
 20
105.0
 30
0.0
 11
15.0
 21
105.0
 31
0.0
  0
LINE
  5
8B
330
82
100
AcDbEntity
  8
0
  6
SLD-实线
 62
   179
100
AcDbLine
 10
5.0
 20
5.0
 30
0.0
 11
292.0
 21
5.0
 31
0.0
  0
LINE
  5
8C
330
82
100
AcDbEntity
  8
0
  6
SLD-实线
 62
   179
100
AcDbLine
 10
10.0
 20
10.0
 30
0.0
 11
103.06
 21
10.0
 31
0.0
  0
LINE
  5
8D
330
82
100
AcDbEntity
  8
0
  6
SLD-实线
 62
   179
100
AcDbLine
 10
48.5
 20
5.0
 30
0.0
 11
48.5
 21
10.0
 31
0.0
  0
LINE
  5
8E
330
82
100
AcDbEntity
  8
0
  6
SLD-实线
 62
   179
100
AcDbLine
 10
10.0
 20
155.0
 30
0.0
 11
5.0
 21
155.0
 31
0.0
  0
LINE
  5
8F
330
82
100
AcDbEntity
  8
0
  6
SLD-实线
 62
   179
100
AcDbLine
 10
48.5
 20
200.0
 30
0.0
 11
48.5
 21
205.0
 31
0.0
  0
LINE
  5
90
330
82
100
AcDbEntity
  8
0
  6
SLD-实线
 62
   179
100
AcDbLine
 10
98.5
 20
205.0
 30
0.0
 11
98.5
 21
200.0
 31
0.0
  0
LINE
  5
91
330
82
100
AcDbEntity
  8
0
  6
SLD-实线
 62
   179
100
AcDbLine
 10
148.5
 20
205.0
 30
0.0
 11
148.5
 21
195.0
 31
0.0
  0
LINE
  5
92
330
82
100
AcDbEntity
  8
0
  6
SLD-实线
 62
   179
100
AcDbLine
 10
287.0
 20
40.0
 30
0.0
 11
287.0
 21
200.0
 31
0.0
  0
LINE
  5
93
330
82
100
AcDbEntity
  8
0
  6
SLD-实线
 62
   179
100
AcDbLine
 10
292.0
 20
5.0
 30
0.0
 11
292.0
 21
205.0
 31
0.0
  0
LINE
  5
94
330
82
100
AcDbEntity
  8
0
  6
SLD-实线
 62
   179
100
AcDbLine
 10
292.0
 20
105.0
 30
0.0
 11
282.0
 21
105.0
 31
0.0
  0
LINE
  5
95
330
82
100
AcDbEntity
  8
0
  6
SLD-实线
 62
   179
100
AcDbLine
 10
198.5
 20
205.0
 30
0.0
 11
198.5
 21
200.0
 31
0.0
  0
LINE
  5
96
330
82
100
AcDbEntity
  8
0
  6
SLD-实线
 62
   179
100
AcDbLine
 10
248.5
 20
200.0
 30
0.0
 11
248.5
 21
205.0
 31
0.0
  0
LINE
  5
97
330
82
100
AcDbEntity
  8
0
  6
SLD-实线
 62
   179
100
AcDbLine
 10
287.0
 20
155.0
 30
0.0
 11
292.0
 21
155.0
 31
0.0
  0
ENDBLK
  5
84
330
82
100
AcDbEntity
  8
0
100
AcDbBlockEnd
  0
BLOCK
  5
99
330
98
100
AcDbEntity
  8
0
100
AcDbBlockBegin
  2
块8
 70
     0
 10
0.0
 20
0.0
 30
0.0
  3
块8
  1

  0
CIRCLE
  5
9B
330
98
100
AcDbEntity
  8
FORMAT
100
AcDbCircle
 10
12.4755833453
 20
2.9302960963
 30
0.0
 40
1.280502586763482
  0
CIRCLE
  5
9C
330
98
100
AcDbEntity
  8
FORMAT
100
AcDbCircle
 10
12.4755833453
 20
2.9302960963
 30
0.0
 40
2.284992241209807
  0
LINE
  5
9D
330
98
100
AcDbEntity
  8
0
  6
SLD-中心线
 62
   179
100
AcDbLine
 10
9.4222595504
 20
2.9302960963
 30
0.0
 11
15.5289071403
 21
2.9302960963
 31
0.0
  0
LINE
  5
9E
330
98
100
AcDbEntity
  8
0
  6
SLD-中心线
 62
   179
100
AcDbLine
 10
12.4420303366
 20
5.8605921925
 30
0.0
 11
12.4420303366
 21
0.0
 31
0.0
  0
LINE
  5
9F
330
98
100
AcDbEntity
  8
0
  6
SLD-实线
 62
   179
100
AcDbLine
 10
0.8052722097
 20
4.210798683
 30
0.0
 11
0.8052722097
 21
1.6160326741
 31
0.0
  0
LINE
  5
A0
330
98
100
AcDbEntity
  8
0
  6
SLD-实线
 62
   179
100
AcDbLine
 10
0.8052722097
 20
1.6160326741
 30
0.0
 11
7.4935052843
 21
0.6115430197
 31
0.0
  0
LINE
  5
A1
330
98
100
AcDbEntity
  8
0
  6
SLD-实线
 62
   179
100
AcDbLine
 10
7.4935052843
 20
0.6115430197
 30
0.0
 11
7.4935052843
 21
5.2152883375
 31
0.0
  0
LINE
  5
A2
330
98
100
AcDbEntity
  8
0
  6
SLD-实线
 62
   179
100
AcDbLine
 10
7.4935052843
 20
5.2152883375
 30
0.0
 11
0.8052722097
 21
4.210798683
 31
0.0
  0
LINE
  5
A3
330
98
100
AcDbEntity
  8
0
  6
SLD-中心线
 62
   179
100
AcDbLine
 10
0.0
 20
2.9134156786
 30
0.0
 11
8.5224642189
 21
2.9134156786
 31
0.0
  0
ENDBLK
  5
9A
330
98
100
AcDbEntity
  8
0
100
AcDbBlockEnd
  0
BLOCK
  5
C1
330
C0
100
AcDbEntity
  8
0
100
AcDbBlockBegin
  2
SW_NOTE_0
 70
     0
 10
0.0
 20
0.0
 30
0.0
  3
SW_NOTE_0
  1

  0
LINE
  5
C3
330
C0
100
AcDbEntity
  8
FORMAT
 62
     0
100
AcDbLine
 10
11.9557600539
 20
0.5938425893
 30
0.0
 11
8.8899998977
 21
5.7907553497
 31
0.0
  0
LINE
  5
C4
330
C0
100
AcDbEntity
  8
FORMAT
 62
     0
100
AcDbLine
 10
15.0215202102
 20
5.7907553497
 30
0.0
 11
8.8899998977
 21
5.7907553497
 31
0.0
  0
LINE
  5
C5
330
C0
100
AcDbEntity
  8
FORMAT
 62
     0
100
AcDbLine
 10
11.9557600539
 20
0.5938425893
 30
0.0
 11
18.0872803664
 21
10.9876681101
 31
0.0
  0
MTEXT
  5
C7
330
C0
100
AcDbEntity
  8
FORMAT
 62
     0
100
AcDbMText
 10
0.0
 20
4.0927900738
 30
0.0
 40
3.175
 41
0.0
 71
     1
 72
     1
  1
\M+191B4\M+1975D
  7
SLDTEXTSTYLE0
  0
MTEXT
  5
C9
330
C0
100
AcDbEntity
  8
FORMAT
 62
     0
100
AcDbMText
 10
9.109736356
 20
10.4804104006
 30
0.0
 40
3.6380208333
 41
0.0
 71
     1
 72
     1
  1
6.3
  7
SLDTEXTSTYLE1
  0
ENDBLK
  5
C2
330
C0
100
AcDbEntity
  8
0
100
AcDbBlockEnd
  0
BLOCK
  5
CC
330
CB
100
AcDbEntity
  8
0
100
AcDbBlockBegin
  2
SW_NOTE_1
 70
     0
 10
0.0
 20
0.0
 30
0.0
  3
SW_NOTE_1
  1

  0
MTEXT
  5
CF
330
CB
100
AcDbEntity
  8
尺寸线
 62
     0
100
AcDbMText
 10
0.0
 20
4.0927900738
 30
0.0
 40
3.175
 41
0.0
 71
     1
 72
     1
  1
\M+18B5A术\M+19776\M+18B81\M+18146
  7
SLDTEXTSTYLE2
  0
MTEXT
  5
D0
330
CB
100
AcDbEntity
  8
尺寸线
 62
     0
100
AcDbMText
 10
7.14375
 20
-6.3738768184
 30
0.0
 40
3.175
 41
0.0
 71
     1
 72
     1
  1
1\M+18141\M+189BA\M+197BF\M+195BD\M+190AE\M+18143圆\M+18D45\M+18D45\M+193E0\M+19DD9\M+19D99\M+197F4\M+19399\M+1E39E\M+1E89C\M+18142
  7
SLDTEXTSTYLE2
  0
MTEXT
  5
D1
330
CB
100
AcDbEntity
  8
尺寸线
 62
     0
100
AcDbMText
 10
7.14375
 20
-16.8405437106
 30
0.0
 40
3.175
 41
0.0
 71
     1
 72
     1
  1
2\M+18141\M+18B8E\M+196D1\M+18E68\M+18143边\M+18A70\M+1937C钝\M+18142
  7
SLDTEXTSTYLE2
  0
MTEXT
  5
D2
330
CB
100
AcDbEntity
  8
尺寸线
 62
     0
100
AcDbMText
 10
7.14375
 20
-27.3072106027
 30
0.0
 40
3.175
 41
0.0
 71
     1
 72
     1
  1
3\M+18141\M+190DC\M+19C5E\M+19DD9变\M+18C60\M+18143\M+19786纹\M+190B4洁\M+18141\M+18CF5顺\M+18142
  7
SLDTEXTSTYLE2
  0
MTEXT
  5
D3
330
CB
100
AcDbEntity
  8
尺寸线
 62
     0
100
AcDbMText
 10
7.14375
 20
-37.7738774949
 30
0.0
 40
3.175
 41
0.0
 71
     1
 72
     1
  1
4\M+18141产\M+19569\M+1955C\M+196CA\M+19D65\M+18CF5处\M+1979D
  7
SLDTEXTSTYLE2
  0
ENDBLK
  5
CD
330
CB
100
AcDbEntity
  8
0
100
AcDbBlockEnd
  0
BLOCK
  5
10F
330
10E
100
AcDbEntity
  8
0
100
AcDbBlockBegin
  2
_D
 70
     0
 10
0.0
 20
0.0
 30
0.0
  3
_D
  1

  0
SOLID
  5
111
330
10E
100
AcDbEntity
  8
尺寸线
100
AcDbTrace
 10
137.956702361
 20
162.7733948133
 30
0.0
 11
136.156702361
 21
163.1733948133
 31
0.0
 12
136.156702361
 22
162.3733948133
 32
0.0
 13
136.156702361
 23
162.3733948133
 33
0.0
  0
SOLID
  5
112
330
10E
100
AcDbEntity
  8
尺寸线
100
AcDbTrace
 10
86.756702361
 20
162.7733948133
 30
0.0
 11
88.556702361
 21
162.3733948133
 31
0.0
 12
88.556702361
 22
163.1733948133
 32
0.0
 13
88.556702361
 23
163.1733948133
 33
0.0
  0
LINE
  5
113
330
10E
100
AcDbEntity
  8
尺寸线
100
AcDbLine
 10
137.956702361
 20
145.7733948133
 30
0.0
 11
137.956702361
 21
163.7733948133
 31
0.0
  0
LINE
  5
114
330
10E
100
AcDbEntity
  8
尺寸线
100
AcDbLine
 10
86.756702361
 20
145.7733948133
 30
0.0
 11
86.756702361
 21
163.7733948133
 31
0.0
  0
LINE
  5
115
330
10E
100
AcDbEntity
  8
尺寸线
100
AcDbLine
 10
137.956702361
 20
162.7733948133
 30
0.0
 11
86.756702361
 21
162.7733948133
 31
0.0
  0
MTEXT
  5
116
330
10E
100
AcDbEntity
  8
尺寸线
100
AcDbMText
 10
109.3014939984
 20
167.2851316696
 30
0.0
 40
3.5
 41
0.0
 71
     1
 72
     1
  1
256
  7
SLDTEXTSTYLE1
  0
ENDBLK
  5
110
330
10E
100
AcDbEntity
  8
0
100
AcDbBlockEnd
  0
BLOCK
  5
119
330
118
100
AcDbEntity
  8
0
100
AcDbBlockBegin
  2
_D_1
 70
     0
 10
0.0
 20
0.0
 30
0.0
  3
_D_1
  1

  0
SOLID
  5
11B
330
118
100
AcDbEntity
  8
尺寸线
100
AcDbTrace
 10
137.056702361
 20
155.7733948133
 30
0.0
 11
135.256702361
 21
156.1733948133
 31
0.0
 12
135.256702361
 22
155.3733948133
 32
0.0
 13
135.256702361
 23
155.3733948133
 33
0.0
  0
SOLID
  5
11C
330
118
100
AcDbEntity
  8
尺寸线
100
AcDbTrace
 10
87.656702361
 20
155.7733948133
 30
0.0
 11
89.456702361
 21
155.3733948133
 31
0.0
 12
89.456702361
 22
156.1733948133
 32
0.0
 13
89.456702361
 23
156.1733948133
 33
0.0
  0
LINE
  5
11D
330
118
100
AcDbEntity
  8
尺寸线
100
AcDbLine
 10
137.056702361
 20
145.8233948133
 30
0.0
 11
137.056702361
 21
156.7733948133
 31
0.0
  0
LINE
  5
11E
330
118
100
AcDbEntity
  8
尺寸线
100
AcDbLine
 10
87.656702361
 20
145.8233948133
 30
0.0
 11
87.656702361
 21
156.7733948133
 31
0.0
  0
LINE
  5
11F
330
118
100
AcDbEntity
  8
尺寸线
100
AcDbLine
 10
137.056702361
 20
155.7733948133
 30
0.0
 11
87.656702361
 21
155.7733948133
 31
0.0
  0
MTEXT
  5
120
330
118
100
AcDbEntity
  8
尺寸线
100
AcDbMText
 10
109.3014939984
 20
160.2851316696
 30
0.0
 40
3.5
 41
0.0
 71
     1
 72
     1
  1
247
  7
SLDTEXTSTYLE1
  0
ENDBLK
  5
11A
330
118
100
AcDbEntity
  8
0
100
AcDbBlockEnd
  0
BLOCK
  5
123
330
122
100
AcDbEntity
  8
0
100
AcDbBlockBegin
  2
_D_2
 70
     0
 10
0.0
 20
0.0
 30
0.0
  3
_D_2
  1

  0
SOLID
  5
125
330
122
100
AcDbEntity
  8
尺寸线
100
AcDbTrace
 10
154.956702361
 20
145.7733948133
 30
0.0
 11
154.556702361
 21
143.9733948133
 31
0.0
 12
155.356702361
 22
143.9733948133
 32
0.0
 13
155.356702361
 23
143.9733948133
 33
0.0
  0
SOLID
  5
126
330
122
100
AcDbEntity
  8
尺寸线
100
AcDbTrace
 10
154.956702361
 20
94.5733948133
 30
0.0
 11
155.356702361
 21
96.3733948133
 31
0.0
 12
154.556702361
 22
96.3733948133
 32
0.0
 13
154.556702361
 23
96.3733948133
 33
0.0
  0
LINE
  5
127
330
122
100
AcDbEntity
  8
尺寸线
100
AcDbLine
 10
137.956702361
 20
145.7733948133
 30
0.0
 11
155.956702361
 21
145.7733948133
 31
0.0
  0
LINE
  5
128
330
122
100
AcDbEntity
  8
尺寸线
100
AcDbLine
 10
137.956702361
 20
94.5733948133
 30
0.0
 11
155.956702361
 21
94.5733948133
 31
0.0
  0
LINE
  5
129
330
122
100
AcDbEntity
  8
尺寸线
100
AcDbLine
 10
154.956702361
 20
145.7733948133
 30
0.0
 11
154.956702361
 21
94.5733948133
 31
0.0
  0
MTEXT
  5
12A
330
122
100
AcDbEntity
  8
尺寸线
100
AcDbMText
 10
150.4449655046
 20
117.1181864506
 30
0.0
 40
3.5
 41
0.0
 71
     1
 72
     1
  1
256
  7
SLDTEXTSTYLE1
 11
-7.044195017643634E-15
 21
1.0
 31
0.0
  0
ENDBLK
  5
124
330
122
100
AcDbEntity
  8
0
100
AcDbBlockEnd
  0
BLOCK
  5
12D
330
12C
100
AcDbEntity
  8
0
100
AcDbBlockBegin
  2
_D_3
 70
     0
 10
0.0
 20
0.0
 30
0.0
  3
_D_3
  1

  0
SOLID
  5
12F
330
12C
100
AcDbEntity
  8
尺寸线
100
AcDbTrace
 10
147.956702361
 20
143.8733948133
 30
0.0
 11
147.556702361
 21
142.0733948133
 31
0.0
 12
148.356702361
 22
142.0733948133
 32
0.0
 13
148.356702361
 23
142.0733948133
 33
0.0
  0
SOLID
  5
130
330
12C
100
AcDbEntity
  8
尺寸线
100
AcDbTrace
 10
147.956702361
 20
96.4733948133
 30
0.0
 11
148.356702361
 21
98.2733948133
 31
0.0
 12
147.556702361
 22
98.2733948133
 32
0.0
 13
147.556702361
 23
98.2733948133
 33
0.0
  0
LINE
  5
131
330
12C
100
AcDbEntity
  8
尺寸线
100
AcDbLine
 10
139.006702361
 20
143.8733948133
 30
0.0
 11
148.956702361
 21
143.8733948133
 31
0.0
  0
LINE
  5
132
330
12C
100
AcDbEntity
  8
尺寸线
100
AcDbLine
 10
139.006702361
 20
96.4733948133
 30
0.0
 11
148.956702361
 21
96.4733948133
 31
0.0
  0
LINE
  5
133
330
12C
100
AcDbEntity
  8
尺寸线
100
AcDbLine
 10
147.956702361
 20
143.8733948133
 30
0.0
 11
147.956702361
 21
96.4733948133
 31
0.0
  0
MTEXT
  5
134
330
12C
100
AcDbEntity
  8
尺寸线
100
AcDbMText
 10
143.4449655046
 20
117.1181864506
 30
0.0
 40
3.5
 41
0.0
 71
     1
 72
     1
  1
237
  7
SLDTEXTSTYLE1
 11
-7.044195017643634E-15
 21
1.0
 31
0.0
  0
ENDBLK
  5
12E
330
12C
100
AcDbEntity
  8
0
100
AcDbBlockEnd
  0
BLOCK
  5
138
330
137
100
AcDbEntity
  8
0
100
AcDbBlockBegin
  2
_D_4
 70
     0
 10
0.0
 20
0.0
 30
0.0
  3
_D_4
  1

  0
SOLID
  5
13A
330
137
100
AcDbEntity
  8
尺寸线
100
AcDbTrace
 10
137.6068535607
 20
145.5331996682
 30
0.0
 11
139.0810476621
 21
146.6407879271
 31
0.0
 12
138.4732037782
 22
147.1609088869
 32
0.0
 13
138.4732037782
 23
147.1609088869
 33
0.0
  0
LINE
  5
13B
330
137
100
AcDbEntity
  8
尺寸线
100
AcDbLine
 10
137.6068535607
 20
145.5331996682
 30
0.0
 11
146.369202361
 21
155.7733948133
 31
0.0
  0
LINE
  5
13C
330
137
100
AcDbEntity
  8
尺寸线
100
AcDbLine
 10
136.956702361
 20
144.7733948133
 30
0.0
 11
137.6068535607
 21
145.5331996682
 31
0.0
  0
LINE
  5
13D
330
137
100
AcDbEntity
  8
尺寸线
100
AcDbLine
 10
146.369202361
 20
155.7733948133
 30
0.0
 11
152.030313356
 21
155.7733948133
 31
0.0
  0
MTEXT
  5
13E
330
137
100
AcDbEntity
  8
尺寸线
100
AcDbMText
 10
147.956702361
 20
160.2851316696
 30
0.0
 40
3.5
 41
0.0
 71
     1
 72
     1
  1
R5
  7
SLDTEXTSTYLE1
  0
ENDBLK
  5
139
330
137
100
AcDbEntity
  8
0
100
AcDbBlockEnd
  0
BLOCK
  5
142
330
141
100
AcDbEntity
  8
0
100
AcDbBlockBegin
  2
_NONE
 70
     0
 10
0.0
 20
0.0
 30
0.0
  3
_NONE
  1

  0
ENDBLK
  5
143
330
141
100
AcDbEntity
  8
0
100
AcDbBlockEnd
  0
BLOCK
  5
145
330
144
100
AcDbEntity
  8
0
100
AcDbBlockBegin
  2
_D_5
 70
     0
 10
0.0
 20
0.0
 30
0.0
  3
_D_5
  1

  0
SOLID
  5
147
330
144
100
AcDbEntity
  8
尺寸线
100
AcDbTrace
 10
137.281702361
 20
96.0836833816
 30
0.0
 11
137.8352921995
 21
94.3248376548
 31
0.0
 12
138.5281125225
 22
94.7248376548
 32
0.0
 13
138.5281125225
 23
94.7248376548
 33
0.0
  0
LINE
  5
148
330
144
100
AcDbEntity
  8
尺寸线
100
AcDbLine
 10
137.281702361
 20
96.0836833816
 30
0.0
 11
146.3340445751
 21
80.4045667393
 31
0.0
  0
LINE
  5
149
330
144
100
AcDbEntity
  8
尺寸线
100
AcDbLine
 10
136.831702361
 20
96.863106245
 30
0.0
 11
137.281702361
 21
96.0836833816
 31
0.0
  0
LINE
  5
14A
330
144
100
AcDbEntity
  8
尺寸线
100
AcDbLine
 10
146.3340445751
 20
80.4045667393
 30
0.0
 11
188.4539807969
 21
80.4045667393
 31
0.0
  0
MTEXT
  5
14C
330
144
100
AcDbEntity
  8
尺寸线
100
AcDbMText
 10
147.9215445751
 20
84.9163035957
 30
0.0
 40
3.5
 41
0.0
 71
     1
 72
     1
  1
4 x
  7
SLDTEXTSTYLE5
  0
MTEXT
  5
14D
330
144
100
AcDbEntity
  8
尺寸线
100
AcDbMText
 10
156.068766565
 20
84.9163035957
 30
0.0
 40
3.5
 41
0.0
 71
     1
 72
     1
  1
%%c
  7
SLDTEXTSTYLE1
  0
MTEXT
  5
14E
330
144
100
AcDbEntity
  8
尺寸线
100
AcDbMText
 10
161.9074468473
 20
84.9163035957
 30
0.0
 40
3.5
 41
0.0
 71
     1
 72
     1
  1
4.50 \M+18AAE\M+19153贯\M+190FA
  7
SLDTEXTSTYLE0
  0
ENDBLK
  5
146
330
144
100
AcDbEntity
  8
0
100
AcDbBlockEnd
  0
BLOCK
  5
150
330
14F
100
AcDbEntity
  8
0
100
AcDbBlockBegin
  2
SW_CENTERMARKSYMBOL_0
 70
     0
 10
0.0
 20
0.0
 30
0.0
  3
SW_CENTERMARKSYMBOL_0
  1

  0
LINE
  5
152
330
14F
100
AcDbEntity
  8
尺寸线
 62
     0
100
AcDbLine
 10
0.0
 20
0.0
 30
0.0
 11
0.0
 21
0.5
 31
0.0
  0
LINE
  5
153
330
14F
100
AcDbEntity
  8
尺寸线
 62
     0
100
AcDbLine
 10
0.0
 20
0.0
 30
0.0
 11
-0.5
 21
0.0
 31
0.0
  0
LINE
  5
154
330
14F
100
AcDbEntity
  8
尺寸线
 62
     0
100
AcDbLine
 10
0.0
 20
0.0
 30
0.0
 11
0.0
 21
-0.5
 31
0.0
  0
LINE
  5
155
330
14F
100
AcDbEntity
  8
尺寸线
 62
     0
100
AcDbLine
 10
0.0
 20
0.0
 30
0.0
 11
0.5
 21
0.0
 31
0.0
  0
LINE
  5
156
330
14F
100
AcDbEntity
  8
尺寸线
 62
     0
100
AcDbLine
 10
0.0
 20
0.5
 30
0.0
 11
0.0
 21
0.95
 31
0.0
  0
LINE
  5
157
330
14F
100
AcDbEntity
  8
尺寸线
 62
     0
100
AcDbLine
 10
-0.5
 20
0.0
 30
0.0
 11
-0.95
 21
0.0
 31
0.0
  0
LINE
  5
158
330
14F
100
AcDbEntity
  8
尺寸线
 62
     0
100
AcDbLine
 10
0.0
 20
-0.5
 30
0.0
 11
0.0
 21
-0.95
 31
0.0
  0
LINE
  5
159
330
14F
100
AcDbEntity
  8
尺寸线
 62
     0
100
AcDbLine
 10
0.5
 20
0.0
 30
0.0
 11
0.95
 21
0.0
 31
0.0
  0
ENDBLK
  5
151
330
14F
100
AcDbEntity
  8
0
100
AcDbBlockEnd
  0
BLOCK
  5
15C
330
15B
100
AcDbEntity
  8
0
100
AcDbBlockBegin
  2
SW_CENTERMARKSYMBOL_1
 70
     0
 10
0.0
 20
0.0
 30
0.0
  3
SW_CENTERMARKSYMBOL_1
  1

  0
LINE
  5
15E
330
15B
100
AcDbEntity
  8
尺寸线
 62
     0
100
AcDbLine
 10
0.0
 20
0.0
 30
0.0
 11
0.0
 21
0.5
 31
0.0
  0
LINE
  5
15F
330
15B
100
AcDbEntity
  8
尺寸线
 62
     0
100
AcDbLine
 10
0.0
 20
0.0
 30
0.0
 11
-0.5
 21
0.0
 31
0.0
  0
LINE
  5
160
330
15B
100
AcDbEntity
  8
尺寸线
 62
     0
100
AcDbLine
 10
0.0
 20
0.0
 30
0.0
 11
0.0
 21
-0.5
 31
0.0
  0
LINE
  5
161
330
15B
100
AcDbEntity
  8
尺寸线
 62
     0
100
AcDbLine
 10
0.0
 20
0.0
 30
0.0
 11
0.5
 21
0.0
 31
0.0
  0
LINE
  5
162
330
15B
100
AcDbEntity
  8
尺寸线
 62
     0
100
AcDbLine
 10
0.0
 20
0.5
 30
0.0
 11
0.0
 21
0.95
 31
0.0
  0
LINE
  5
163
330
15B
100
AcDbEntity
  8
尺寸线
 62
     0
100
AcDbLine
 10
-0.5
 20
0.0
 30
0.0
 11
-0.95
 21
0.0
 31
0.0
  0
LINE
  5
164
330
15B
100
AcDbEntity
  8
尺寸线
 62
     0
100
AcDbLine
 10
0.0
 20
-0.5
 30
0.0
 11
0.0
 21
-0.95
 31
0.0
  0
LINE
  5
165
330
15B
100
AcDbEntity
  8
尺寸线
 62
     0
100
AcDbLine
 10
0.5
 20
0.0
 30
0.0
 11
0.95
 21
0.0
 31
0.0
  0
ENDBLK
  5
15D
330
15B
100
AcDbEntity
  8
0
100
AcDbBlockEnd
  0
BLOCK
  5
168
330
167
100
AcDbEntity
  8
0
100
AcDbBlockBegin
  2
SW_CENTERMARKSYMBOL_2
 70
     0
 10
0.0
 20
0.0
 30
0.0
  3
SW_CENTERMARKSYMBOL_2
  1

  0
LINE
  5
16A
330
167
100
AcDbEntity
  8
尺寸线
 62
     0
100
AcDbLine
 10
0.0
 20
0.0
 30
0.0
 11
0.0
 21
0.5
 31
0.0
  0
LINE
  5
16B
330
167
100
AcDbEntity
  8
尺寸线
 62
     0
100
AcDbLine
 10
0.0
 20
0.0
 30
0.0
 11
-0.5
 21
0.0
 31
0.0
  0
LINE
  5
16C
330
167
100
AcDbEntity
  8
尺寸线
 62
     0
100
AcDbLine
 10
0.0
 20
0.0
 30
0.0
 11
0.0
 21
-0.5
 31
0.0
  0
LINE
  5
16D
330
167
100
AcDbEntity
  8
尺寸线
 62
     0
100
AcDbLine
 10
0.0
 20
0.0
 30
0.0
 11
0.5
 21
0.0
 31
0.0
  0
LINE
  5
16E
330
167
100
AcDbEntity
  8
尺寸线
 62
     0
100
AcDbLine
 10
0.0
 20
0.5
 30
0.0
 11
0.0
 21
0.95
 31
0.0
  0
LINE
  5
16F
330
167
100
AcDbEntity
  8
尺寸线
 62
     0
100
AcDbLine
 10
-0.5
 20
0.0
 30
0.0
 11
-0.95
 21
0.0
 31
0.0
  0
LINE
  5
170
330
167
100
AcDbEntity
  8
尺寸线
 62
     0
100
AcDbLine
 10
0.0
 20
-0.5
 30
0.0
 11
0.0
 21
-0.95
 31
0.0
  0
LINE
  5
171
330
167
100
AcDbEntity
  8
尺寸线
 62
     0
100
AcDbLine
 10
0.5
 20
0.0
 30
0.0
 11
0.95
 21
0.0
 31
0.0
  0
ENDBLK
  5
169
330
167
100
AcDbEntity
  8
0
100
AcDbBlockEnd
  0
BLOCK
  5
174
330
173
100
AcDbEntity
  8
0
100
AcDbBlockBegin
  2
SW_CENTERMARKSYMBOL_3
 70
     0
 10
0.0
 20
0.0
 30
0.0
  3
SW_CENTERMARKSYMBOL_3
  1

  0
LINE
  5
176
330
173
100
AcDbEntity
  8
尺寸线
 62
     0
100
AcDbLine
 10
0.0
 20
0.0
 30
0.0
 11
0.0
 21
0.5
 31
0.0
  0
LINE
  5
177
330
173
100
AcDbEntity
  8
尺寸线
 62
     0
100
AcDbLine
 10
0.0
 20
0.0
 30
0.0
 11
-0.5
 21
0.0
 31
0.0
  0
LINE
  5
178
330
173
100
AcDbEntity
  8
尺寸线
 62
     0
100
AcDbLine
 10
0.0
 20
0.0
 30
0.0
 11
0.0
 21
-0.5
 31
0.0
  0
LINE
  5
179
330
173
100
AcDbEntity
  8
尺寸线
 62
     0
100
AcDbLine
 10
0.0
 20
0.0
 30
0.0
 11
0.5
 21
0.0
 31
0.0
  0
LINE
  5
17A
330
173
100
AcDbEntity
  8
尺寸线
 62
     0
100
AcDbLine
 10
0.0
 20
0.5
 30
0.0
 11
0.0
 21
0.95
 31
0.0
  0
LINE
  5
17B
330
173
100
AcDbEntity
  8
尺寸线
 62
     0
100
AcDbLine
 10
-0.5
 20
0.0
 30
0.0
 11
-0.95
 21
0.0
 31
0.0
  0
LINE
  5
17C
330
173
100
AcDbEntity
  8
尺寸线
 62
     0
100
AcDbLine
 10
0.0
 20
-0.5
 30
0.0
 11
0.0
 21
-0.95
 31
0.0
  0
LINE
  5
17D
330
173
100
AcDbEntity
  8
尺寸线
 62
     0
100
AcDbLine
 10
0.5
 20
0.0
 30
0.0
 11
0.95
 21
0.0
 31
0.0
  0
ENDBLK
  5
175
330
173
100
AcDbEntity
  8
0
100
AcDbBlockEnd
  0
BLOCK
  5
18A
330
189
100
AcDbEntity
  8
0
100
AcDbBlockBegin
  2
_D_6
 70
     0
 10
0.0
 20
0.0
 30
0.0
  3
_D_6
  1

  0
SOLID
  5
18C
330
189
100
AcDbEntity
  8
尺寸线
100
AcDbTrace
 10
175.452815321
 20
151.8805791315
 30
0.0
 11
173.652815321
 21
152.2805791315
 31
0.0
 12
173.652815321
 22
151.4805791315
 32
0.0
 13
173.652815321
 23
151.4805791315
 33
0.0
  0
SOLID
  5
18D
330
189
100
AcDbEntity
  8
尺寸线
100
AcDbTrace
 10
175.752815321
 20
151.8805791315
 30
0.0
 11
177.552815321
 21
151.4805791315
 31
0.0
 12
177.552815321
 22
152.2805791315
 32
0.0
 13
177.552815321
 23
152.2805791315
 33
0.0
  0
LINE
  5
18E
330
189
100
AcDbEntity
  8
尺寸线
100
AcDbLine
 10
175.452815321
 20
146.7733948133
 30
0.0
 11
175.452815321
 21
152.8805791315
 31
0.0
  0
LINE
  5
18F
330
189
100
AcDbEntity
  8
尺寸线
100
AcDbLine
 10
175.752815321
 20
146.7733948133
 30
0.0
 11
175.752815321
 21
152.8805791315
 31
0.0
  0
LINE
  5
190
330
189
100
AcDbEntity
  8
尺寸线
100
AcDbLine
 10
175.452815321
 20
151.8805791315
 30
0.0
 11
172.332815321
 21
151.8805791315
 31
0.0
  0
LINE
  5
191
330
189
100
AcDbEntity
  8
尺寸线
100
AcDbLine
 10
175.452815321
 20
151.8805791315
 30
0.0
 11
175.752815321
 21
151.8805791315
 31
0.0
  0
LINE
  5
192
330
189
100
AcDbEntity
  8
尺寸线
100
AcDbLine
 10
175.752815321
 20
151.8805791315
 30
0.0
 11
190.539730967
 21
151.8805791315
 31
0.0
  0
MTEXT
  5
193
330
189
100
AcDbEntity
  8
尺寸线
100
AcDbMText
 10
182.392508977
 20
156.3923159879
 30
0.0
 40
3.5
 41
0.0
 71
     1
 72
     1
  1
1.50
  7
SLDTEXTSTYLE1
  0
ENDBLK
  5
18B
330
189
100
AcDbEntity
  8
0
100
AcDbBlockEnd
  0
ENDSEC
  0
SECTION
  2
ENTITIES
  0
LINE
  5
A4
330
1F
100
AcDbEntity
  8
0
  6
SLD-实线
 62
     7
100
AcDbLine
 10
247.0
 20
12.0
 30
0.0
 11
192.0
 21
12.0
 31
0.0
  0
LINE
  5
A5
330
1F
100
AcDbEntity
  8
0
  6
SLD-实线
 62
     7
100
AcDbLine
 10
247.0
 20
19.0
 30
0.0
 11
198.3933432542
 21
19.0
 31
0.0
  0
LINE
  5
A6
330
1F
100
AcDbEntity
  8
0
  6
SLD-实线
 62
     7
100
AcDbLine
 10
103.0571778813
 20
40.0
 30
0.0
 11
292.0
 21
40.0
 31
0.0
  0
LINE
  5
A7
330
1F
100
AcDbEntity
  8
0
  6
SLD-实线
 62
     7
100
AcDbLine
 10
149.7947197244
 20
33.0
 30
0.0
 11
149.7947197244
 21
19.0
 31
0.0
  0
LINE
  5
A8
330
1F
100
AcDbEntity
  8
0
  6
SLD-实线
 62
     7
100
AcDbLine
 10
192.0
 20
26.0
 30
0.0
 11
103.0571778813
 21
26.0
 31
0.0
  0
LINE
  5
A9
330
1F
100
AcDbEntity
  8
0
  6
SLD-实线
 62
     7
100
AcDbLine
 10
192.0
 20
33.0
 30
0.0
 11
103.0571778813
 21
33.0
 31
0.0
  0
LINE
  5
AA
330
1F
100
AcDbEntity
  8
0
  6
SLD-实线
 62
     7
100
AcDbLine
 10
192.0
 20
5.0
 30
0.0
 11
192.0
 21
40.0
 31
0.0
  0
LINE
  5
AB
330
1F
100
AcDbEntity
  8
0
  6
SLD-实线
 62
     7
100
AcDbLine
 10
198.3933432542
 20
26.0
 30
0.0
 11
198.3933432542
 21
12.0
 31
0.0
  0
LINE
  5
AC
330
1F
100
AcDbEntity
  8
0
  6
SLD-实线
 62
     7
100
AcDbLine
 10
103.0571778813
 20
40.0
 30
0.0
 11
103.0571778813
 21
5.0
 31
0.0
  0
LINE
  5
AD
330
1F
100
AcDbEntity
  8
0
  6
SLD-实线
 62
     7
100
AcDbLine
 10
114.5474705604
 20
33.0
 30
0.0
 11
114.5474705604
 21
19.0
 31
0.0
  0
LINE
  5
AE
330
1F
100
AcDbEntity
  8
0
  6
SLD-实线
 62
     7
100
AcDbLine
 10
131.3170869027
 20
33.0
 30
0.0
 11
131.3170869027
 21
19.0
 31
0.0
  0
LINE
  5
AF
330
1F
100
AcDbEntity
  8
0
  6
SLD-实线
 62
     7
100
AcDbLine
 10
173.9981971499
 20
33.0
 30
0.0
 11
173.9981971499
 21
19.0
 31
0.0
  0
LINE
  5
B0
330
1F
100
AcDbEntity
  8
0
  6
SLD-实线
 62
     7
100
AcDbLine
 10
192.0
 20
19.0
 30
0.0
 11
103.0571778813
 21
19.0
 31
0.0
  0
LINE
  5
B1
330
1F
100
AcDbEntity
  8
0
  6
SLD-实线
 62
     7
100
AcDbLine
 10
247.0
 20
40.0
 30
0.0
 11
247.0
 21
5.0
 31
0.0
  0
LINE
  5
B2
330
1F
100
AcDbEntity
  8
0
  6
SLD-实线
 62
     7
100
AcDbLine
 10
218.0
 20
26.0
 30
0.0
 11
218.0
 21
12.0
 31
0.0
  0
LINE
  5
B3
330
1F
100
AcDbEntity
  8
0
  6
SLD-实线
 62
     7
100
AcDbLine
 10
235.0
 20
26.0
 30
0.0
 11
235.0
 21
5.0
 31
0.0
  0
LINE
  5
B4
330
1F
100
AcDbEntity
  8
0
  6
SLD-实线
 62
     7
100
AcDbLine
 10
247.0
 20
26.0
 30
0.0
 11
192.0
 21
26.0
 31
0.0
  0
INSERT
  5
B5
330
1F
100
AcDbEntity
  8
0
  6
CONTINUOUS
 62
     7
100
AcDbBlockReference
  2
块1
 10
247.0
 20
16.0
 30
0.0
 41
0.5
 42
0.5
 43
0.5
  0
INSERT
  5
B6
330
1F
100
AcDbEntity
  8
0
  6
CONTINUOUS
 62
     7
100
AcDbBlockReference
  2
工程图7
 10
163.7947197244
 20
19.0
 30
0.0
 41
0.5
 42
0.5
 43
0.5
  0
INSERT
  5
B7
330
1F
100
AcDbEntity
  8
0
  6
CONTINUOUS
 62
     7
100
AcDbBlockReference
  2
块1
 10
247.0
 20
28.0
 30
0.0
 41
0.5
 42
0.5
 43
0.5
  0
INSERT
  5
B8
330
1F
100
AcDbEntity
  8
0
  6
CONTINUOUS
 62
     7
100
AcDbBlockReference
  2
工程图55
 10
0.0
 20
0.0
 30
0.0
 41
1.0
 42
1.0
 43
1.0
  0
INSERT
  5
B9
330
1F
100
AcDbEntity
  8
0
  6
CONTINUOUS
 62
     7
100
AcDbBlockReference
  2
块8
 10
200.4478489696
 20
12.8774366089
 30
0.0
  0
POINT
  5
BA
330
1F
100
AcDbEntity
  8
尺寸线
100
AcDbPoint
 10
287.0
 20
200.0
 30
0.0
  0
POINT
  5
BB
330
1F
100
AcDbEntity
  8
尺寸线
100
AcDbPoint
 10
287.0
 20
40.0
 30
0.0
  0
POINT
  5
BC
330
1F
100
AcDbEntity
  8
尺寸线
100
AcDbPoint
 10
103.06
 20
10.0
 30
0.0
  0
POINT
  5
BD
330
1F
100
AcDbEntity
  8
尺寸线
100
AcDbPoint
 10
103.0571778813
 20
40.0
 30
0.0
  0
POINT
  5
BE
330
1F
100
AcDbEntity
  8
尺寸线
100
AcDbPoint
 10
10.0
 20
10.0
 30
0.0
  0
POINT
  5
BF
330
1F
100
AcDbEntity
  8
尺寸线
100
AcDbPoint
 10
10.0
 20
200.0
 30
0.0
  0
INSERT
  5
CA
330
1F
100
AcDbEntity
  8
FORMAT
100
AcDbBlockReference
  2
SW_NOTE_0
 10
264.1085750315
 20
186.372983311
 30
0.0
  0
INSERT
  5
D4
330
1F
100
AcDbEntity
  8
尺寸线
100
AcDbBlockReference
  2
SW_NOTE_1
 10
14.0823873339
 20
62.7364272778
 30
0.0
  0
MTEXT
  5
D6
330
1F
100
AcDbEntity
  8
0
  6
CONTINUOUS
 62
     7
100
AcDbMText
 10
6.6666666667
 20
131.1680164036
 30
0.0
 40
1.8520833333
 41
0.0
 71
     1
 72
     1
  1
B
  7
SLDTEXTSTYLE3
  0
MTEXT
  5
D7
330
1F
100
AcDbEntity
  8
0
  6
CONTINUOUS
 62
     7
100
AcDbMText
 10
6.6666666667
 20
81.1680164036
 30
0.0
 40
1.8520833333
 41
0.0
 71
     1
 72
     1
  1
C
  7
SLDTEXTSTYLE3
  0
MTEXT
  5
D8
330
1F
100
AcDbEntity
  8
0
  6
CONTINUOUS
 62
     7
100
AcDbMText
 10
6.6666666667
 20
31.1680164036
 30
0.0
 40
1.8520833333
 41
0.0
 71
     1
 72
     1
  1
D
  7
SLDTEXTSTYLE3
  0
MTEXT
  5
D9
330
1F
100
AcDbEntity
  8
0
  6
CONTINUOUS
 62
     7
100
AcDbMText
 10
23.0833373333
 20
8.6680164036
 30
0.0
 40
1.8520833333
 41
0.0
 71
     1
 72
     1
  1
1
  7
SLDTEXTSTYLE3
  0
MTEXT
  5
DA
330
1F
100
AcDbEntity
  8
0
  6
CONTINUOUS
 62
     7
100
AcDbMText
 10
72.6666706667
 20
8.6094566752
 30
0.0
 40
3.175
 41
0.0
 71
     1
 72
     1
  1
2
  7
SLDTEXTSTYLE1
  0
MTEXT
  5
DB
330
1F
100
AcDbEntity
  8
0
  6
CONTINUOUS
 62
     7
100
AcDbMText
 10
6.6666666667
 20
181.1680164036
 30
0.0
 40
1.8520833333
 41
0.0
 71
     1
 72
     1
  1
A
  7
SLDTEXTSTYLE3
  0
MTEXT
  5
DC
330
1F
100
AcDbEntity
  8
0
  6
CONTINUOUS
 62
     7
100
AcDbMText
 10
122.6666706667
 20
203.6680164036
 30
0.0
 40
1.8520833333
 41
0.0
 71
     1
 72
     1
  1
3
  7
SLDTEXTSTYLE3
  0
MTEXT
  5
DD
330
1F
100
AcDbEntity
  8
0
  6
CONTINUOUS
 62
     7
100
AcDbMText
 10
72.6666706667
 20
203.6680164036
 30
0.0
 40
1.8520833333
 41
0.0
 71
     1
 72
     1
  1
2
  7
SLDTEXTSTYLE3
  0
MTEXT
  5
DE
330
1F
100
AcDbEntity
  8
0
  6
CONTINUOUS
 62
     7
100
AcDbMText
 10
23.0833373333
 20
203.6680164036
 30
0.0
 40
1.8520833333
 41
0.0
 71
     1
 72
     1
  1
1
  7
SLDTEXTSTYLE3
  0
MTEXT
  5
DF
330
1F
100
AcDbEntity
  8
0
  6
CONTINUOUS
 62
     7
100
AcDbMText
 10
172.6666706667
 20
203.6680164036
 30
0.0
 40
1.8520833333
 41
0.0
 71
     1
 72
     1
  1
4
  7
SLDTEXTSTYLE3
  0
MTEXT
  5
E0
330
1F
100
AcDbEntity
  8
0
  6
CONTINUOUS
 62
     7
100
AcDbMText
 10
288.6666746667
 20
131.1680164036
 30
0.0
 40
1.8520833333
 41
0.0
 71
     1
 72
     1
  1
B
  7
SLDTEXTSTYLE3
  0
MTEXT
  5
E1
330
1F
100
AcDbEntity
  8
0
  6
CONTINUOUS
 62
     7
100
AcDbMText
 10
288.6666746667
 20
181.1680164036
 30
0.0
 40
1.8520833333
 41
0.0
 71
     1
 72
     1
  1
A
  7
SLDTEXTSTYLE3
  0
MTEXT
  5
E2
330
1F
100
AcDbEntity
  8
0
  6
CONTINUOUS
 62
     7
100
AcDbMText
 10
222.6666706667
 20
203.6680164036
 30
0.0
 40
1.8520833333
 41
0.0
 71
     1
 72
     1
  1
5
  7
SLDTEXTSTYLE3
  0
MTEXT
  5
E3
330
1F
100
AcDbEntity
  8
0
  6
CONTINUOUS
 62
     7
100
AcDbMText
 10
272.6666706667
 20
203.6680164036
 30
0.0
 40
1.8520833333
 41
0.0
 71
     1
 72
     1
  1
6
  7
SLDTEXTSTYLE3
  0
MTEXT
  5
E4
330
1F
100
AcDbEntity
  8
0
  6
CONTINUOUS
 62
     7
100
AcDbMText
 10
288.6926520658
 20
82.091062323
 30
0.0
 40
3.175
 41
0.0
 71
     1
 72
     1
  1
C
  7
SLDTEXTSTYLE1
  0
MTEXT
  5
E5
330
1F
100
AcDbEntity
  8
0
  6
CONTINUOUS
 62
     7
100
AcDbMText
 10
107.2916475209
 20
39.6579839548
 30
0.0
 40
3.175
 41
0.0
 71
     2
 72
     1
  1
\M+19848\M+18C61:
  7
SLDTEXTSTYLE0
  0
MTEXT
  5
E6
330
1F
100
AcDbEntity
  8
0
  6
CONTINUOUS
 62
     7
100
AcDbMText
 10
247.5431517104
 20
27.8896233654
 30
0.0
 40
3.175
 41
0.0
 71
     1
 72
     1
  1
\M+196BC\M+18FCC:
  7
SLDTEXTSTYLE0
  0
MTEXT
  5
E7
330
1F
100
AcDbEntity
  8
0
  6
CONTINUOUS
 62
     7
100
AcDbMText
 10
247.5671099837
 20
15.287705896
 30
0.0
 40
3.175
 41
0.0
 71
     1
 72
     1
  1
图\M+18D86:
  7
SLDTEXTSTYLE0
  0
MTEXT
  5
E8
330
1F
100
AcDbEntity
  8
0
  6
CONTINUOUS
 62
     7
100
AcDbMText
 10
240.7184987465
 20
24.243854686
 30
0.0
 40
3.175
 41
0.0
 71
     2
 72
     1
  1
\M+194E4\M+197E1
  7
SLDTEXTSTYLE0
  0
MTEXT
  5
E9
330
1F
100
AcDbEntity
  8
0
  6
CONTINUOUS
 62
     7
100
AcDbMText
 10
225.6024075257
 20
24.8742201171
 30
0.0
 40
3.175
 41
0.0
 71
     2
 72
     1
  1
\M+18F64\M+197CA(kg)
  7
SLDTEXTSTYLE0
  0
MTEXT
  5
EA
330
1F
100
AcDbEntity
  8
0
  6
CONTINUOUS
 62
     7
100
AcDbMText
 10
108.5079102583
 20
24.5468731772
 30
0.0
 40
3.175
 41
0.0
 71
     2
 72
     1
  1
设计
  7
SLDTEXTSTYLE0
  0
MTEXT
  5
EB
330
1F
100
AcDbEntity
  8
0
  6
CONTINUOUS
 62
     7
100
AcDbMText
 10
155.4651061127
 20
24.5687658894
 30
0.0
 40
3.175
 41
0.0
 71
     2
 72
     1
  1
审\M+18A6A
  7
SLDTEXTSTYLE0
  0
MTEXT
  5
EC
330
1F
100
AcDbEntity
  8
0
  6
CONTINUOUS
 62
     7
100
AcDbMText
 10
108.4371611064
 20
31.8641565412
 30
0.0
 40
2.6458333333
 41
0.0
 71
     2
 72
     1
  1
\M+18A6A\M+18F79
  7
SLDTEXTSTYLE0
  0
MTEXT
  5
ED
330
1F
100
AcDbEntity
  8
0
  6
CONTINUOUS
 62
     7
100
AcDbMText
 10
155.5905110662
 20
31.773714449
 30
0.0
 40
3.175
 41
0.0
 71
     2
 72
     1
  1
标\M+18F79\M+189BB
  7
SLDTEXTSTYLE0
  0
MTEXT
  5
EE
330
1F
100
AcDbEntity
  8
0
  6
CONTINUOUS
 62
     7
100
AcDbMText
 10
192.6789167569
 20
39.4487295364
 30
0.0
 40
2.38125
 41
0.0
 71
     1
 72
     1
  1
\M+18DDE\M+197BF:
  7
SLDTEXTSTYLE0
  0
MTEXT
  5
EF
330
1F
100
AcDbEntity
  8
0
  6
CONTINUOUS
 62
     7
100
AcDbMText
 10
240.6162870129
 20
17.28120491
 30
0.0
 40
3.175
 41
0.0
 71
     2
 72
     1
  1
1:5
  7
SLDTEXTSTYLE1
  0
MTEXT
  5
F1
330
1F
100
AcDbEntity
  8
0
  6
CONTINUOUS
 62
     7
100
AcDbMText
 10
194.7386600236
 20
10.3152070386
 30
0.0
 40
3.175
 41
0.0
 71
     1
 72
     1
  1
\M+18BA4 1 张    \M+191E6 1 张
  7
SLDTEXTSTYLE4
  0
MTEXT
  5
F2
330
1F
100
AcDbEntity
  8
0
  6
CONTINUOUS
 62
     7
100
AcDbMText
 10
238.5713703048
 20
10.3152070386
 30
0.0
 40
3.175
 41
0.0
 71
     1
 72
     1
  1
A4
  7
SLDTEXTSTYLE1
  0
MTEXT
  5
F3
330
1F
100
AcDbEntity
  8
0
  6
CONTINUOUS
 62
     7
100
AcDbMText
 10
267.7945559788
 20
10.8745011848
 30
0.0
 40
3.175
 41
0.0
 71
     2
 72
     1
  1
ADD-\M+18D54\M+190A7\M+194A0-1
  7
SLDTEXTSTYLE0
  0
MTEXT
  5
F4
330
1F
100
AcDbEntity
  8
0
  6
CONTINUOUS
 62
     7
100
AcDbMText
 10
195.019870247
 20
17.6506691696
 30
0.0
 40
3.175
 41
0.0
 71
     2
 72
     1
  1
\M+18A70
  7
SLDTEXTSTYLE0
  0
MTEXT
  5
F5
330
1F
100
AcDbEntity
  8
0
  6
CONTINUOUS
 62
     7
100
AcDbMText
 10
194.7084612683
 20
23.8090041417
 30
0.0
 40
3.175
 41
0.0
 71
     2
 72
     1
  1
视
  7
SLDTEXTSTYLE0
  0
MTEXT
  5
F6
330
1F
100
AcDbEntity
  8
0
  6
CONTINUOUS
 62
     7
100
AcDbMText
 10
140.1172463011
 20
31.773714449
 30
0.0
 40
3.175
 41
0.0
 71
     2
 72
     1
  1
\M+193FA\M+18AFA
  7
SLDTEXTSTYLE0
  0
MTEXT
  5
F7
330
1F
100
AcDbEntity
  8
0
  6
CONTINUOUS
 62
     7
100
AcDbMText
 10
182.0682611161
 20
31.6811867224
 30
0.0
 40
3.175
 41
0.0
 71
     2
 72
     1
  1
\M+1955C\M+196CA处\M+1979D
  7
SLDTEXTSTYLE0
  0
MTEXT
  5
F8
330
1F
100
AcDbEntity
  8
FORMAT
100
AcDbMText
 10
192.4920543328
 20
35.4706322603
 30
0.0
 40
2.38125
 41
0.0
 71
     1
 72
     1
  1
规\M+18A69:
  7
SLDTEXTSTYLE0
  0
MTEXT
  5
F9
330
1F
100
AcDbEntity
  8
FORMAT
100
AcDbMText
 10
219.3713308475
 20
16.8900925141
 30
0.0
 40
3.175
 41
0.0
 71
     1
 72
     1
  1
0.779
  7
SLDTEXTSTYLE1
  0
MTEXT
  5
FA
330
1F
100
AcDbEntity
  8
0
  6
CONTINUOUS
 62
     7
100
AcDbMText
 10
247.6262374973
 20
40.0201753903
 30
0.0
 40
3.175
 41
0.0
 71
     1
 72
     1
  1
\M+19094\M+197CA:单\M+188CA(PCS)
  7
SLDTEXTSTYLE0
  0
MTEXT
  5
FB
330
1F
100
AcDbEntity
  8
FORMAT
100
AcDbMText
 10
268.0910764865
 20
34.367621455
 30
0.0
 40
3.175
 41
0.0
 71
     1
 72
     1
  1
pcs
  7
SLDTEXTSTYLE1
  0
MTEXT
  5
FC
330
1F
100
AcDbEntity
  8
FORMAT
100
AcDbMText
 10
211.2663685447
 20
36.3453692478
 30
0.0
 40
3.175
 41
0.0
 71
     1
 72
     1
  1
SUS304
  7
SLDTEXTSTYLE1
  0
MTEXT
  5
FD
330
1F
100
AcDbEntity
  8
FORMAT
100
AcDbMText
 10
257.9064054589
 20
34.3676215714
 30
0.0
 40
3.175
 41
0.0
 71
     1
 72
     1
  1
1
  7
SLDTEXTSTYLE1
  0
MTEXT
  5
FE
330
1F
100
AcDbEntity
  8
0
  6
CONTINUOUS
 62
     7
100
AcDbMText
 10
207.9516006808
 20
24.8742201171
 30
0.0
 40
3.175
 41
0.0
 71
     2
 72
     1
  1
\M+191E6\M+188EA视\M+18A70
  7
SLDTEXTSTYLE0
  0
MTEXT
  5
FF
330
1F
100
AcDbEntity
  8
FORMAT
100
AcDbMText
 10
139.1778654585
 20
23.2347323476
 30
0.0
 40
2.6458333333
 41
0.0
 71
     2
 72
     1
  1
2020-04-08
  7
SLDTEXTSTYLE1
  0
ARC
  5
100
330
1F
100
AcDbEntity
  8
0
  6
SLD-实线
 62
     7
100
AcDbCircle
 10
87.756702361
 20
144.7733948133
 30
0.0
 40
1.0
100
AcDbArc
 50
90.0
 51
180.0
  0
ARC
  5
101
330
1F
100
AcDbEntity
  8
0
  6
SLD-实线
 62
     7
100
AcDbCircle
 10
136.956702361
 20
144.7733948133
 30
0.0
 40
1.0
100
AcDbArc
 50
0.0
 51
90.0
  0
ARC
  5
102
330
1F
100
AcDbEntity
  8
0
  6
SLD-实线
 62
     7
100
AcDbCircle
 10
87.756702361
 20
95.5733948133
 30
0.0
 40
1.0
100
AcDbArc
 50
180.0
 51
270.0
  0
CIRCLE
  5
103
330
1F
100
AcDbEntity
  8
0
  6
SLD-实线
 62
     7
100
AcDbCircle
 10
137.056702361
 20
96.4733948133
 30
0.0
 40
0.4500000000000028
  0
CIRCLE
  5
104
330
1F
100
AcDbEntity
  8
0
  6
SLD-实线
 62
     7
100
AcDbCircle
 10
87.656702361
 20
96.4733948133
 30
0.0
 40
0.4500000000000028
  0
CIRCLE
  5
105
330
1F
100
AcDbEntity
  8
0
  6
SLD-实线
 62
     7
100
AcDbCircle
 10
87.656702361
 20
143.8733948133
 30
0.0
 40
0.4500000000000171
  0
CIRCLE
  5
106
330
1F
100
AcDbEntity
  8
0
  6
SLD-实线
 62
     7
100
AcDbCircle
 10
137.056702361
 20
143.8733948133
 30
0.0
 40
0.4499999999999886
  0
ARC
  5
107
330
1F
100
AcDbEntity
  8
0
  6
SLD-实线
 62
     7
100
AcDbCircle
 10
136.956702361
 20
95.5733948133
 30
0.0
 40
1.0
100
AcDbArc
 50
270.0
 51
0.0
  0
LINE
  5
108
330
1F
100
AcDbEntity
  8
0
  6
SLD-实线
 62
     7
100
AcDbLine
 10
136.956702361
 20
145.7733948133
 30
0.0
 11
87.756702361
 21
145.7733948133
 31
0.0
  0
LINE
  5
109
330
1F
100
AcDbEntity
  8
0
  6
SLD-实线
 62
     7
100
AcDbLine
 10
86.756702361
 20
144.7733948133
 30
0.0
 11
86.756702361
 21
95.5733948133
 31
0.0
  0
LINE
  5
10A
330
1F
100
AcDbEntity
  8
0
  6
SLD-实线
 62
     7
100
AcDbLine
 10
87.756702361
 20
94.5733948133
 30
0.0
 11
136.956702361
 21
94.5733948133
 31
0.0
  0
LINE
  5
10B
330
1F
100
AcDbEntity
  8
0
  6
SLD-实线
 62
     7
100
AcDbLine
 10
137.956702361
 20
95.5733948133
 30
0.0
 11
137.956702361
 21
144.7733948133
 31
0.0
  0
DIMENSION
  5
10C
330
1F
100
AcDbEntity
  8
尺寸线
100
AcDbDimension
  2
_D
 10
86.756702361
 20
162.7733948133
 30
0.0
 11
112.356702361
 21
162.7733948133
 31
0.0
 70
   160
  1
<>
  3
SLDDIMSTYLE0
100
AcDbAlignedDimension
 13
137.956702361
 23
144.7733948133
 33
0.0
 14
86.756702361
 24
144.7733948133
 34
0.0
100
AcDbRotatedDimension
  0
DIMENSION
  5
117
330
1F
100
AcDbEntity
  8
尺寸线
100
AcDbDimension
  2
_D_1
 10
87.656702361
 20
155.7733948133
 30
0.0
 11
112.356702361
 21
155.7733948133
 31
0.0
 70
   160
  1
<>
  3
SLDDIMSTYLE0
100
AcDbAlignedDimension
 13
137.056702361
 23
144.8233948133
 33
0.0
 14
87.656702361
 24
144.8233948133
 34
0.0
100
AcDbRotatedDimension
  0
DIMENSION
  5
121
330
1F
100
AcDbEntity
  8
尺寸线
100
AcDbDimension
  2
_D_2
 10
154.956702361
 20
94.5733948133
 30
0.0
 11
154.956702361
 21
120.1733948133
 31
0.0
 70
   160
  1
<>
  3
SLDDIMSTYLE0
100
AcDbAlignedDimension
 13
136.956702361
 23
145.7733948133
 33
0.0
 14
136.956702361
 24
94.5733948133
 34
0.0
 50
90.0
100
AcDbRotatedDimension
  0
DIMENSION
  5
12B
330
1F
100
AcDbEntity
  8
尺寸线
100
AcDbDimension
  2
_D_3
 10
147.956702361
 20
96.4733948133
 30
0.0
 11
147.956702361
 21
120.1733948133
 31
0.0
 70
   160
  1
<>
  3
SLDDIMSTYLE0
100
AcDbAlignedDimension
 13
138.006702361
 23
143.8733948133
 33
0.0
 14
138.006702361
 24
96.4733948133
 34
0.0
 50
90.0
100
AcDbRotatedDimension
  0
DIMENSION
  5
135
330
1F
100
AcDbEntity
  8
尺寸线
100
AcDbDimension
  2
_D_4
 10
136.956702361
 20
144.7733948133
 30
0.0
 11
149.9935078585
 21
157.8102003108
 31
0.0
 70
   164
  1
<>
  3
SLDDIMSTYLE1
100
AcDbRadialDimension
 15
137.6068535607
 25
145.5331996682
 35
0.0
 40
0.0
  0
DIMENSION
  5
13F
330
1F
100
AcDbEntity
  8
尺寸线
100
AcDbDimension
  2
_D_5
 10
136.831702361
 20
96.863106245
 30
0.0
 11
168.187762686
 21
82.6545666424
 31
0.0
 70
   163
  1
4 x <> 完全贯穿\P
  3
SLDDIMSTYLE2
100
AcDbDiametricDimension
 15
137.281702361
 25
96.0836833816
 35
0.0
 40
0.0
  0
INSERT
  5
15A
330
1F
100
AcDbEntity
  8
尺寸线
100
AcDbBlockReference
  2
SW_CENTERMARKSYMBOL_0
 10
137.056702361
 20
96.4733948133
 30
0.0
  0
INSERT
  5
166
330
1F
100
AcDbEntity
  8
尺寸线
100
AcDbBlockReference
  2
SW_CENTERMARKSYMBOL_1
 10
87.656702361
 20
96.4733948133
 30
0.0
  0
INSERT
  5
172
330
1F
100
AcDbEntity
  8
尺寸线
100
AcDbBlockReference
  2
SW_CENTERMARKSYMBOL_2
 10
87.656702361
 20
143.8733948133
 30
0.0
  0
INSERT
  5
17E
330
1F
100
AcDbEntity
  8
尺寸线
100
AcDbBlockReference
  2
SW_CENTERMARKSYMBOL_3
 10
137.056702361
 20
143.8733948133
 30
0.0
  0
LINE
  5
17F
330
1F
100
AcDbEntity
  8
0
  6
SLD-实线
 62
     7
100
AcDbLine
 10
175.752815321
 20
95.5733948133
 30
0.0
 11
175.752815321
 21
94.5733948133
 31
0.0
  0
LINE
  5
180
330
1F
100
AcDbEntity
  8
0
  6
SLD-实线
 62
     7
100
AcDbLine
 10
175.752815321
 20
94.5733948133
 30
0.0
 11
175.452815321
 21
94.5733948133
 31
0.0
  0
LINE
  5
181
330
1F
100
AcDbEntity
  8
0
  6
SLD-实线
 62
     7
100
AcDbLine
 10
175.452815321
 20
94.5733948133
 30
0.0
 11
175.452815321
 21
95.5733948133
 31
0.0
  0
LINE
  5
182
330
1F
100
AcDbEntity
  8
0
  6
SLD-实线
 62
     7
100
AcDbLine
 10
175.752815321
 20
144.7733948133
 30
0.0
 11
175.752815321
 21
95.5733948133
 31
0.0
  0
LINE
  5
183
330
1F
100
AcDbEntity
  8
0
  6
SLD-实线
 62
     7
100
AcDbLine
 10
175.452815321
 20
144.7733948133
 30
0.0
 11
175.452815321
 21
95.5733948133
 31
0.0
  0
LINE
  5
184
330
1F
100
AcDbEntity
  8
0
  6
SLD-实线
 62
     7
100
AcDbLine
 10
175.452815321
 20
145.7733948133
 30
0.0
 11
175.752815321
 21
145.7733948133
 31
0.0
  0
LINE
  5
185
330
1F
100
AcDbEntity
  8
0
  6
SLD-实线
 62
     7
100
AcDbLine
 10
175.752815321
 20
145.7733948133
 30
0.0
 11
175.752815321
 21
144.7733948133
 31
0.0
  0
LINE
  5
186
330
1F
100
AcDbEntity
  8
0
  6
SLD-实线
 62
     7
100
AcDbLine
 10
175.452815321
 20
144.7733948133
 30
0.0
 11
175.452815321
 21
145.7733948133
 31
0.0
  0
DIMENSION
  5
187
330
1F
100
AcDbEntity
  8
尺寸线
100
AcDbDimension
  2
_D_6
 10
175.752815321
 20
151.8805791315
 30
0.0
 11
186.466119972
 21
151.8805791315
 31
0.0
 70
   160
  1
<>
  3
SLDDIMSTYLE3
100
AcDbAlignedDimension
 13
175.452815321
 23
145.7733948133
 33
0.0
 14
175.752815321
 24
145.7733948133
 34
0.0
100
AcDbRotatedDimension
  0
ENDSEC
  0
SECTION
  2
OBJECTS
  0
DICTIONARY
  5
C
330
0
100
AcDbDictionary
  3
ACAD_GROUP
350
D
  3
ACAD_MLINESTYLE
350
17
  3
ACAD_SCALELIST
350
47
1001
ACAD
1000
TREAT_AS_HARD
1070
     0
  0
DICTIONARY
  5
D
102
{ACAD_REACTORS
330
C
102
}
330
C
100
AcDbDictionary
1001
ACAD
1000
TREAT_AS_HARD
1070
     0
  0
DICTIONARY
  5
17
102
{ACAD_REACTORS
330
C
102
}
330
C
100
AcDbDictionary
  3
STANDARD
350
18
1001
ACAD
1000
TREAT_AS_HARD
1070
     0
  0
DICTIONARY
  5
47
102
{ACAD_REACTORS
330
C
102
}
330
C
100
AcDbDictionary
1001
ACAD
1000
TREAT_AS_HARD
1070
     0
  0
MLINESTYLE
  5
18
102
{ACAD_REACTORS
330
17
102
}
330
17
100
AcDbMlineStyle
  2
Standard
 70
     0
  3

 62
   256
 51
90.0
 52
90.0
 71
     2
 49
0.5
 62
   256
  6
BYLAYER
 49
-0.5
 62
   256
  6
BYLAYER
  0
ENDSEC
  0
EOF
